<svg id="Layer_1" data-name="Layer 1" xmlns="http://www.w3.org/2000/svg" width="201.58" height="122" viewBox="0 0 201.58 122">
  <title>ken icons</title>
  <g>
    <path d="M201.57,116.41v-2.52H173.92c.12-.54.2-.19.2-.77V8.38A7.32,7.32,0,0,0,166.82,1H98.11v6.8h69.2V114.07H98.11v6.58h68C203.16,120.65,201.57,116.41,201.57,116.41Z" fill="#010101"/>
    <path d="M80.1,0H37.53C31,0,27.16,5.49,27.16,10.69V111.48c0,6,4.38,10.52,11.43,10.52H78.34c7.51,0,13.27-2.2,13.27-11.63V11.92C91.61,5.12,88.22,0,80.1,0Zm4.12,7.92V31.73c-13,3.47-19,15.14-19,26.13,0,6,2,14.52,7.65,20.47a10.27,10.27,0,0,0-7.65,9.93A3.21,3.21,0,0,1,62,91.47H61a3.21,3.21,0,0,1-3.21-3.21V85l0-1.27a10.32,10.32,0,0,0-10.3-10.32h-13V7.92Zm0,69.37C72.55,73.83,72.33,58,72.33,57.86c0-6,2.71-15.22,11.89-18.7ZM59.36,118.5a3.73,3.73,0,1,1,3.72-3.72A3.73,3.73,0,0,1,59.36,118.5ZM34.55,107.65V80.52h13a3.21,3.21,0,0,1,3.21,3.21l0,4.53A10.31,10.31,0,0,0,61,98.56h1a10.31,10.31,0,0,0,10.3-10.3,3.21,3.21,0,0,1,3.21-3.21h8.68v22.6Z" fill="#010101"/>
    <path d="M136.68,64.62A3.73,3.73,0,1,0,133,68.34,3.73,3.73,0,0,0,136.68,64.62Z" fill="#010101"/>
    <path d="M160.14,74.75V71.41a10.31,10.31,0,0,0-4.06-8.19c-8.81-6.66-12.54-11-12.83-12.22-.23-8.2-5.44-13.4-13.59-13.56h-.25a14,14,0,0,0-7.14,2c-5.08-3.81-12-7.67-24.5-8.53V38c8.14.59,14.08,2.64,19.66,6.68,0,.09-.09.18-.13.28-2.64,5.74-1.49,11.43,3.16,15.59a3.53,3.53,0,0,0,5-.27,3.55,3.55,0,0,0-.27-5c-2.34-2.09-2.8-4.43-1.45-7.36a6.1,6.1,0,0,1,5.62-3.34h.16c4.35.09,6.53,2.27,6.65,6.69.05,1.63.17,6,15.64,17.66a3.19,3.19,0,0,1,1.24,2.54v3.34A3.21,3.21,0,0,1,149.84,78H97.77v7.09h52.07A10.31,10.31,0,0,0,160.14,74.75Z" fill="#010101"/>
    <path d="M0,77a3.55,3.55,0,0,0,3.54,3.55H21V73.43H3.54A3.55,3.55,0,0,0,0,77Z" fill="#010101"/>
  </g>
</svg>
