<svg id="Layer_1" data-name="Layer 1" xmlns="http://www.w3.org/2000/svg" width="116" height="122" viewBox="0 0 116 122">
  <title>ken icons</title>
  <g>
    <path d="M26.7,103.15a4.25,4.25,0,0,0-.71.06,4.64,4.64,0,0,0-2.93,2.06,10.26,10.26,0,0,0-1.19,7.62c.93,4.66,4.45,8.22,7.67,7.64a4.63,4.63,0,0,0,2.94-2,10.28,10.28,0,0,0,1.18-7.63C32.8,106.53,29.74,103.15,26.7,103.15Z" fill="none"/>
    <path d="M44.32,81.23H44A5.21,5.21,0,0,0,40.23,84a12,12,0,0,0-1.42,7c.41,5,3.51,9.09,6.74,8.82s5.62-4.76,5.21-9.8C50.36,85.19,47.47,81.23,44.32,81.23Z" fill="none"/>
    <path d="M92.94,105.27A4.64,4.64,0,0,0,90,103.21a4.25,4.25,0,0,0-.71-.06c-3,0-6.1,3.38-7,7.7a10.28,10.28,0,0,0,1.18,7.63,4.73,4.73,0,0,0,2.94,2.06c3.22.58,6.74-3,7.67-7.65A10.27,10.27,0,0,0,92.94,105.27Z" fill="none"/>
    <path d="M72,81.24l-.31,0c-3.15,0-6,4-6.44,8.84-.41,5,2,9.53,5.21,9.8s6.33-3.79,6.74-8.82a12,12,0,0,0-1.42-7A5.21,5.21,0,0,0,72,81.24Z" fill="none"/>
    <path d="M58.26,115.59h-.17c-2.57.1-4.28,1.71-5.73,5.39-.11.29-.26.64-.43,1H64.42c-.17-.38-.32-.73-.43-1C62.54,117.31,60.82,115.69,58.26,115.59Z" fill="none"/>
    <path d="M100.8,99.93a14,14,0,0,0-9.11-6.07,13.61,13.61,0,0,0-2.39-.21H89a2.23,2.23,0,0,1-2.31-2.37C87.32,81,81.2,72.46,72.76,71.77c-4.87-.39-9.69,2-13,6.41a2.32,2.32,0,0,1-3.6,0c-3.27-4.43-8-6.81-13-6.41C34.8,72.46,28.68,81,29.3,91.28A2.23,2.23,0,0,1,27,93.65H26.7a13.53,13.53,0,0,0-2.39.21,14,14,0,0,0-9.11,6.07,19.6,19.6,0,0,0-2.64,14.82A21.61,21.61,0,0,0,15.42,122h6.39a15.76,15.76,0,0,1-4.33-8.23,14.57,14.57,0,0,1,1.88-11,9.05,9.05,0,0,1,5.84-3.94,8.37,8.37,0,0,1,1.5-.14c5.27,0,10,4.76,11.35,11.31a14.59,14.59,0,0,1-1.87,11,11.45,11.45,0,0,1-.8,1H46.91a19.94,19.94,0,0,0,1.29-2.66c.76-1.94,3.06-7.77,9.4-8.21a2,2,0,0,1,.59,0h.16a2.6,2.6,0,0,1,.4,0c6.33.44,8.63,6.27,9.4,8.21A19.93,19.93,0,0,0,69.43,122H80.62a11.45,11.45,0,0,1-.8-1A14.59,14.59,0,0,1,78,110C79.26,103.43,84,98.67,89.3,98.67a8.37,8.37,0,0,1,1.5.14,9.05,9.05,0,0,1,5.84,3.94,14.61,14.61,0,0,1,1.88,11A15.76,15.76,0,0,1,94.19,122h6.38a21.55,21.55,0,0,0,2.88-7.24A19.67,19.67,0,0,0,100.8,99.93Zm-54.89,4.39c-.22,0-.45,0-.67,0-5.6,0-10.29-5.57-10.89-12.94a16.43,16.43,0,0,1,2-9.69,9.38,9.38,0,0,1,7.27-4.94c5.89-.49,10.94,5.24,11.57,12.91S51.77,103.84,45.91,104.32ZM81.66,91.41c-.61,7.37-5.3,12.94-10.9,12.94h0c-.22,0-.45,0-.67,0-5.86-.48-9.94-6.91-9.31-14.63S66.46,76.3,72.35,76.78a9.38,9.38,0,0,1,7.27,4.94A16.51,16.51,0,0,1,81.66,91.41Z" fill="none"/>
    <path d="M52.36,121c1.45-3.68,3.16-5.29,5.73-5.39h.17c2.56.1,4.28,1.72,5.73,5.39.11.29.26.64.43,1h5a19.93,19.93,0,0,1-1.28-2.66c-.77-1.94-3.07-7.77-9.4-8.21a2.6,2.6,0,0,0-.4,0h-.16a2,2,0,0,0-.59,0c-6.34.44-8.64,6.27-9.4,8.21A19.94,19.94,0,0,1,46.91,122h5C52.1,121.62,52.25,121.27,52.36,121Z" fill="#010101"/>
    <path d="M36.18,121a14.59,14.59,0,0,0,1.87-11C36.74,103.43,32,98.67,26.7,98.67a8.37,8.37,0,0,0-1.5.14,9.05,9.05,0,0,0-5.84,3.94,14.57,14.57,0,0,0-1.88,11A15.76,15.76,0,0,0,21.81,122H35.38A11.45,11.45,0,0,0,36.18,121Zm-3.7-2.51a4.63,4.63,0,0,1-2.94,2c-3.22.58-6.74-3-7.67-7.64a10.26,10.26,0,0,1,1.19-7.62A4.64,4.64,0,0,1,26,103.21a4.25,4.25,0,0,1,.71-.06c3,0,6.1,3.38,7,7.7A10.28,10.28,0,0,1,32.48,118.48Z" fill="#010101"/>
    <path d="M43.65,76.78a9.38,9.38,0,0,0-7.27,4.94,16.43,16.43,0,0,0-2,9.69c.6,7.37,5.29,12.94,10.89,12.94.22,0,.45,0,.67,0,5.86-.48,9.94-6.91,9.31-14.63S49.54,76.29,43.65,76.78Zm1.9,23.08c-3.23.27-6.33-3.79-6.74-8.82a12,12,0,0,1,1.42-7A5.21,5.21,0,0,1,44,81.24h.31c3.15,0,6,4,6.44,8.83C51.17,95.1,48.79,99.59,45.55,99.86Z" fill="#010101"/>
    <path d="M98.52,113.77a14.61,14.61,0,0,0-1.88-11,9.05,9.05,0,0,0-5.84-3.94,8.37,8.37,0,0,0-1.5-.14c-5.27,0-10,4.76-11.35,11.31a14.59,14.59,0,0,0,1.87,11,11.45,11.45,0,0,0,.8,1H94.19A15.76,15.76,0,0,0,98.52,113.77Zm-12.06,6.77a4.73,4.73,0,0,1-2.94-2.06,10.28,10.28,0,0,1-1.18-7.63c.86-4.32,3.92-7.7,7-7.7a4.25,4.25,0,0,1,.71.06,4.64,4.64,0,0,1,2.93,2.06,10.27,10.27,0,0,1,1.19,7.62C93.2,117.55,89.68,121.12,86.46,120.54Z" fill="#010101"/>
    <path d="M72.35,76.78C66.46,76.3,61.41,82,60.78,89.69s3.45,14.15,9.31,14.63c.22,0,.45,0,.67,0h0c5.6,0,10.29-5.57,10.9-12.94a16.51,16.51,0,0,0-2-9.69A9.38,9.38,0,0,0,72.35,76.78ZM77.19,91c-.41,5-3.46,9.09-6.74,8.82s-5.62-4.76-5.21-9.8c.4-4.87,3.29-8.84,6.44-8.84l.31,0A5.21,5.21,0,0,1,75.77,84,12,12,0,0,1,77.19,91Z" fill="#010101"/>
    <path d="M12.56,114.75A19.6,19.6,0,0,1,15.2,99.93a14,14,0,0,1,9.11-6.07,13.53,13.53,0,0,1,2.39-.21H27a2.23,2.23,0,0,0,2.31-2.37C28.68,81,34.8,72.46,43.23,71.77c5-.4,9.7,2,13,6.41a2.32,2.32,0,0,0,3.6,0c3.27-4.43,8.09-6.8,13-6.41C81.2,72.46,87.32,81,86.7,91.28A2.23,2.23,0,0,0,89,93.65h.29a13.61,13.61,0,0,1,2.39.21,14,14,0,0,1,9.11,6.07,19.67,19.67,0,0,1,2.65,14.83,21.55,21.55,0,0,1-2.88,7.24h5.11a26.13,26.13,0,0,0,2.15-6.37,24.14,24.14,0,0,0-3.33-18.22,18.48,18.48,0,0,0-12-8c-.41-.08-.84-.14-1.27-.19-.24-11.67-7.86-21.12-18.08-22A18.7,18.7,0,0,0,58,73.37a18.88,18.88,0,0,0-13.68-6.12c-.48,0-1,0-1.45.06-10.22.84-17.84,10.29-18.08,22-.43,0-.86.11-1.28.19a18.48,18.48,0,0,0-12,8,24.12,24.12,0,0,0-3.33,18.22A26.13,26.13,0,0,0,10.32,122h5.1A21.61,21.61,0,0,1,12.56,114.75Z" fill="#010101"/>
    <path d="M22.63,41.35V72.47a2.34,2.34,0,0,0,4.68,0V41.35a8.18,8.18,0,0,0,0-15.68V2.34a2.34,2.34,0,0,0-4.68,0V25.67a8.18,8.18,0,0,0,0,15.68Z" fill="#010101"/>
    <path d="M44.45,25.76v35.8a2.34,2.34,0,1,0,4.67,0V25.76a8.17,8.17,0,0,0,0-15.68V2.34a2.34,2.34,0,1,0-4.67,0v7.74a8.18,8.18,0,0,0,0,15.68Z" fill="#010101"/>
    <path d="M88.09,34.33V71.69a2.34,2.34,0,1,0,4.67,0V34.33a8.17,8.17,0,0,0,0-15.67V2.34a2.34,2.34,0,1,0-4.67,0V18.66a8.17,8.17,0,0,0,0,15.67Z" fill="#010101"/>
    <path d="M66.27,53.81v7.75a2.34,2.34,0,1,0,4.67,0V53.81a8.17,8.17,0,0,0,0-15.67V2.34a2.34,2.34,0,1,0-4.67,0v35.8a8.17,8.17,0,0,0,0,15.67Z" fill="#010101"/>
  </g>
</svg>
