<svg id="Layer_1" data-name="Layer 1" xmlns="http://www.w3.org/2000/svg" width="184.81" height="122" viewBox="0 0 184.81 122">
  <title>ken icons</title>
  <g>
    <path d="M143.85,75.14V71.71a9.63,9.63,0,0,0-3.8-7.66c-8.75-6.62-13.13-11.43-13.51-13.1v-.14c-.23-7.87-5.22-12.86-13-13h-.24a13.36,13.36,0,0,0-6.93,1.93l-.45.27-.41-.31c-5-3.78-11.8-7.63-24.13-8.59V84.77h52.88A9.64,9.64,0,0,0,143.85,75.14Zm-27.67-6.8a3.73,3.73,0,1,1,3.73-3.72A3.73,3.73,0,0,1,116.18,68.34Z" fill="#010101"/>
    <path d="M184.8,116.41v-2.53H157.15c.12-.54.19-.19.19-.76V8.37A7.32,7.32,0,0,0,150.05,1H81.33V7.84h69.21V114.06H81.33v6.58h68C186.39,120.64,184.8,116.41,184.8,116.41Z" fill="#010101"/>
    <path d="M63.33,0H20.75C14.22,0,10.39,5.48,10.39,10.69v64H2.71a2.71,2.71,0,0,0,0,5.42h7.68v31.35c0,6,4.38,10.52,11.43,10.52H61.57c7.51,0,13.27-2.21,13.27-11.64V11.91C74.84,5.12,71.45,0,63.33,0ZM42.59,118.49a3.73,3.73,0,1,1,3.72-3.72A3.72,3.72,0,0,1,42.59,118.49ZM67.45,31.8c-13.06,3.35-19.1,15-19.1,26,0,6.06,2,14.65,7.79,20.57l.93,1-1.3.31A9.6,9.6,0,0,0,48.35,89a4.22,4.22,0,0,1-4.22,4.23h-1A4.23,4.23,0,0,1,38.88,89V85.67l0-1.32a9.65,9.65,0,0,0-9.64-9.64h-5v5.42h5a4.22,4.22,0,0,1,4.23,4.22l0,4.64a9.64,9.64,0,0,0,9.63,9.64h1A9.65,9.65,0,0,0,53.77,89,4.23,4.23,0,0,1,58,84.77h9.46v22.87H17.77V7.91H67.45Z" fill="#010101"/>
  </g>
</svg>
