<svg id="Layer_1" data-name="Layer 1" xmlns="http://www.w3.org/2000/svg" width="99.28" height="100" viewBox="0 0 99.28 100">
  <title>ken icons</title>
  <path d="M80.57,61.1a19.39,19.39,0,0,0-6.34,1.09L58.65,46.61,84.2,21.05l6.23.35L99.64,7,94.17,1.49,79.73,10.68l.11,6.25L54.38,42.59,37.17,25.38a19.16,19.16,0,0,0,1-5.94A19.65,19.65,0,0,0,18.69,0,20,20,0,0,0,14.8.51l-3,.68L24.31,13.74l-2.41,8.9L13,25.05.45,12.5l-.68,3a19.85,19.85,0,0,0-.51,3.91A19.67,19.67,0,0,0,18.71,38.89a19.69,19.69,0,0,0,6.5-1.18L35,47.47l-.35.35a8.83,8.83,0,0,0-2.07,4.42,5.65,5.65,0,0,0-3.74,1.64L2.16,80.52a8.25,8.25,0,0,0-1.59,8.6,23.43,23.43,0,0,0,10.6,10.57l.09,0a11.85,11.85,0,0,0,2.87.27,7.7,7.7,0,0,0,5.64-2.16L46.41,71.21a6.23,6.23,0,0,0,1.64-4,9.7,9.7,0,0,0,4.43-2.09l.08-.08,9.52,9.52A19.43,19.43,0,0,0,80.59,100a19.67,19.67,0,0,0,3.88-.52l3-.67L75,86.26l2.41-8.92,8.9-2.4L98.83,87.49l.68-3A19,19,0,0,0,80.57,61.1ZM94,3.75l1.74,1.87-12,12.31-1-6.07Zm-79.3,29V28.46A13.52,13.52,0,0,0,28.24,15h4.29A17.81,17.81,0,0,1,14.73,32.75Zm15.65,1.34a9.69,9.69,0,0,0,1.89-1.34,11.54,11.54,0,0,0,1.62-1.62l9.57,9.57-.28-.05a3.49,3.49,0,0,0-2.58,1.13L39.33,43ZM6.54,87.59l-3-3,37.78-38,3,3ZM57,60.65l1.26-1.27a3.49,3.49,0,0,0,1.13-2.58,2.33,2.33,0,0,0-.05-.28l9.57,9.57a10.17,10.17,0,0,0-1.74,1.55,17.5,17.5,0,0,0-1.41,1.78Zm24.47,7.5a13.51,13.51,0,0,0-13.5,13.5H63.63A17.81,17.81,0,0,1,81.42,63.86Z" fill="#010101"/>
</svg>
