<svg id="Layer_1" data-name="Layer 1" xmlns="http://www.w3.org/2000/svg" width="128.5" height="100" viewBox="0 0 128.5 100">
  <title>ken icons</title>
  <path d="M-.66,24.17v-4H16V2a2,2,0,1,1,4,0V20.14H36.72v4Z" stroke="#000" stroke-miterlimit="10"/>
  <path d="M18,100a2,2,0,0,1-2-2V34.36h4V98A2,2,0,0,1,18,100Z" stroke="#000" stroke-miterlimit="10"/>
  <path d="M62.24,60.9V2a2,2,0,0,1,4,0V60.9Z" stroke="#000" stroke-miterlimit="10"/>
  <path d="M64.25,100a2,2,0,0,1-2-2V75.11H45.56v-4H82.94v4H66.26V98A2,2,0,0,1,64.25,100Z" stroke="#000" stroke-miterlimit="10"/>
  <path d="M91.77,41.94v-4h16.68V2a2,2,0,0,1,4,0V37.92h16.69v4Z" stroke="#000" stroke-miterlimit="10"/>
  <path d="M110.46,100a2,2,0,0,1-2-2V52.13h4V98A2,2,0,0,1,110.46,100Z" stroke="#000" stroke-miterlimit="10"/>
</svg>
