<svg id="Layer_1" data-name="Layer 1" xmlns="http://www.w3.org/2000/svg" width="128.5" height="100" viewBox="0 0 128.5 100">
  <title>ken icons</title>
  <path d="M13.31,100a2.1,2.1,0,0,1-2.09-2.09V37.39l-1.11-.32a11.18,11.18,0,0,1,0-21.44l1.11-.33V2.09a2.09,2.09,0,0,1,4.18,0V15.3l1.11.33a11.18,11.18,0,0,1,0,21.44l-1.11.32V97.91A2.1,2.1,0,0,1,13.31,100Z" fill="#010101" stroke="#000" stroke-miterlimit="10"/>
  <path d="M47.27,100a2.1,2.1,0,0,1-2.09-2.09V88.33L44.07,88a11.18,11.18,0,0,1,0-21.44l1.11-.33V2.09a2.09,2.09,0,1,1,4.18,0V66.24l1.11.33a11.18,11.18,0,0,1,0,21.44l-1.11.32v9.58A2.1,2.1,0,0,1,47.27,100Z" fill="#010101" stroke="#000" stroke-miterlimit="10"/>
  <path d="M115.19,100a2.09,2.09,0,0,1-2.09-2.09V88.33L112,88a11.18,11.18,0,0,1,0-21.44l1.11-.33V2.09a2.09,2.09,0,0,1,4.18,0V66.24l1.11.33a11.18,11.18,0,0,1,0,21.44l-1.11.32v9.58A2.1,2.1,0,0,1,115.19,100Z" fill="#010101" stroke="#000" stroke-miterlimit="10"/>
  <path d="M81.23,100a2.09,2.09,0,0,1-2.09-2.09V61.65L78,61.33a11.18,11.18,0,0,1,0-21.44l1.11-.33V2.09a2.09,2.09,0,1,1,4.18,0V39.56l1.11.33a11.18,11.18,0,0,1,0,21.44l-1.11.32V97.91A2.1,2.1,0,0,1,81.23,100Z" fill="#010101" stroke="#000" stroke-miterlimit="10"/>
</svg>
