<svg id="Layer_1" data-name="Layer 1" xmlns="http://www.w3.org/2000/svg" width="150.52" height="100" viewBox="0 0 150.52 100">
  <title>ken icons</title>
  <g>
    <path d="M75.28,71.93h.09a9.48,9.48,0,0,0,1.1.06H97.84c5.41,0,6.53-3.79,6.53-6.15V19.24c0-4.34-2.17-7.62-7.4-7.62H75.85a7.58,7.58,0,0,0-.84.05v5H99v45.8H75V71.9a2.3,2.3,0,0,0,.26,0Zm8.22-4.85V67h0a3.45,3.45,0,0,1,6.87,0,1.42,1.42,0,0,1,0,.29,3.36,3.36,0,0,1-.84,2.24h0l-.15.17-.18.16a3.45,3.45,0,0,1-4.86-.32l-.15-.18a3.42,3.42,0,0,1-.26-.4,2.25,2.25,0,0,1-.12-.21,3.73,3.73,0,0,1-.2-.56,2.26,2.26,0,0,1-.1-.45,1.64,1.64,0,0,1,0-.23.41.41,0,0,0,0-.11.49.49,0,0,1,0-.12A1,1,0,0,1,83.5,67.08Z" fill="#010101"/>
    <path d="M24,72V11.12H68.54V5.36H23a4.82,4.82,0,0,0-4.83,4.82V71.39c0,.37,0,.14.13.5H0v1S-1,80.84,23.5,80.84h45V72Z" fill="#010101"/>
    <path d="M142.31,0H75V5.37h70.22V81.13H75V99.88h1.64l3.4.07,2.28,0h18.32V95.77s1-4.34-20.6-4.7v-4.4h62.26c8.21,0,8.21-3.66,8.21-8.17v-69C150.52,5,150.52,0,142.31,0Z" fill="#010101"/>
  </g>
</svg>
