<svg id="Layer_1" data-name="Layer 1" xmlns="http://www.w3.org/2000/svg" width="116" height="122" viewBox="0 0 116 122">
  <title>ken icons</title>
  <g>
    <path d="M113.27,48.85l3-48.85L76.14,16.88l-.08,0a59,59,0,0,0-36.28-.06l-.08,0L-.24,0,2.41,48.77v0A55.73,55.73,0,0,0,.23,64.18c0,31.15,25.84,56.49,57.6,56.49s57.6-25.34,57.6-56.49a55.47,55.47,0,0,0-2.15-15.29Zm-4.37,1.29a50.76,50.76,0,0,1,2,14c0,28.64-23.8,51.94-53,51.94s-53-23.3-53-51.94a50.9,50.9,0,0,1,2-14.11L7,49.29,4.71,7,39.5,21.67l1.68-.55a54.51,54.51,0,0,1,33.47.06l1.7.55L111.25,7l-2.57,42.31Z" fill="#010101"/>
    <path d="M59.47,65l.2,0,.2,0c3.31-.57,7.15-1.58,7.42-4.39.32-3.28-5.09-5.71-7.43-6.6l-.66-.25-.64.28c-5.75,2.53-8,4.61-7.61,7C51.48,64,56.51,64.79,59.47,65Z" fill="#010101"/>
    <path d="M81.88,54.83A4.86,4.86,0,1,0,77,50,4.86,4.86,0,0,0,81.88,54.83Z" fill="#010101"/>
    <path d="M91.9,78.18l-.25-.28a10.48,10.48,0,0,0-16.86,2.67l-.48,1.82H44.05l-.46-1.86a10.55,10.55,0,0,0-17-3c-.1.1-.2.22-.3.33h8.84L39.28,85l-4.13,7.17H26.31a3.58,3.58,0,0,0,.26.29,10.54,10.54,0,0,0,14.93,0,10.13,10.13,0,0,0,2-2.79L44,87.86H74.14l.46,1.88a10.32,10.32,0,0,0,9.57,6.14h0a10.55,10.55,0,0,0,7.43-3c.1-.1.2-.22.29-.33H83.05l-4.12-7.18,4.12-7.17Z" fill="#010101"/>
    <path d="M27.77,64.61l1.51,1.52h4.56c.59-.6.92-.93,1.52-1.52V59l4.07,4.08h2.15l3.22-3.22V57.68L40.72,53.6h5.64l1.52-1.52V47.53L46.36,46H40.72l4.08-4.08V39.79l-3.22-3.22H39.43l-4.07,4.08V35c-.6-.59-.93-.93-1.52-1.52H29.28L27.77,35v5.64l-4.08-4.08H21.54l-3.22,3.22v2.14L22.4,46H16.76l-1.52,1.52v4.55l1.52,1.52H22.4l-4.08,4.08v2.15l3.22,3.22h2.15L27.77,59ZM26.63,47.76l2.89-2.89H33.6l2.89,2.89v4.09L33.6,54.74H29.52l-2.89-2.89Z" fill="#010101"/>
  </g>
</svg>
