<svg id="Layer_1" data-name="Layer 1" xmlns="http://www.w3.org/2000/svg" viewBox="0 0 432 288"><title>Ken Logo Black Outline</title><g id="_Group_" data-name="&lt;Group&gt;"><path d="M363.82,70.67l.38,139.5H301.33V184.1l6.51-11.6,3.34-6H276.48l3.34,6,6.5,11.6v26.07h-60L225.92,70.7l66.51,50.36,2.41,1.83,2.41-1.83,66.56-50.39m-47.46,83.51A11.34,11.34,0,1,0,305,142.84a11.35,11.35,0,0,0,11.34,11.34m-44.48,0a11.34,11.34,0,1,0-11.34-11.34,11.35,11.35,0,0,0,11.34,11.34M367.8,62.64l-72.95,55.23L221.9,62.64l.42,151.53h68v-31h0l-7.06-12.6h21l-7.06,12.6h0v31h70.89L367.8,62.64Zm-51.43,87.54a7.34,7.34,0,1,1,7.34-7.34,7.34,7.34,0,0,1-7.34,7.34Zm-44.48,0a7.34,7.34,0,1,1,7.34-7.34,7.34,7.34,0,0,1-7.34,7.34Z"/></g><g id="_Group_2" data-name="&lt;Group&gt;"><path d="M198.77,72.26,149,138.82l-1.79,2.39,1.79,2.4,49.84,66.77h-70V179.13h-15v31.24h-46V72.26h46v41.19h15V72.26h70m8-4h-82v41.19h-7V68.26h-54V214.37h54V183.13h7v31.24h82l-54.61-73.16,54.61-72.95Z"/></g></svg>