<?xml version="1.0" encoding="utf-8"?>
<!-- Generator: Adobe Illustrator 23.0.1, SVG Export Plug-In . SVG Version: 6.00 Build 0)  -->
<svg version="1.1" id="Layer_1" xmlns="http://www.w3.org/2000/svg" xmlns:xlink="http://www.w3.org/1999/xlink" x="0px" y="0px"
	 viewBox="0 0 432 288" style="enable-background:new 0 0 432 288;" xml:space="preserve">
<style type="text/css">
	.st0{fill:#FFFFFF;}
</style>
<title>Ken Logo Black Outline</title>
<g>
	<g id="_Group_">
		<path d="M367.8,62.6l-73,55.2l-72.9-55.2l0.4,151.5h68v-31l0,0l-7.1-12.6h21l-7.1,12.6l0,0v31h70.9L367.8,62.6z"/>
	</g>
	<g id="_Group_2">
		<path d="M206.8,68.3h-82v41.2h-7V68.3h-54v146.1h54v-31.2h7v31.2h82l-54.6-73.2C152.2,141.2,206.8,68.3,206.8,68.3z"/>
	</g>
	<path class="st0" d="M316.4,150.2c-4.1,0-7.3-3.3-7.3-7.3s3.3-7.3,7.3-7.3c4.1,0,7.3,3.3,7.3,7.3c0,0,0,0,0,0
		C323.7,146.9,320.4,150.2,316.4,150.2z"/>
	<path class="st0" d="M271.9,150.2c-4.1,0-7.3-3.3-7.3-7.3s3.3-7.3,7.3-7.3c4.1,0,7.3,3.3,7.3,7.3c0,0,0,0,0,0
		C279.2,146.9,275.9,150.2,271.9,150.2z"/>
</g>
</svg>
