<svg id="Layer_1" data-name="Layer 1" xmlns="http://www.w3.org/2000/svg" width="116" height="122" viewBox="0 0 116 122">
  <title>ken icons</title>
  <g>
    <path d="M113.88,49.39l3-49.39L76.35,17.06l-.09,0A59.76,59.76,0,0,0,39.58,17l-.08,0L-.88,0,1.8,49.31v0A56.16,56.16,0,0,0-.41,64.89C-.41,96.38,25.72,122,57.83,122s58.24-25.62,58.24-57.11a56.27,56.27,0,0,0-2.18-15.46Zm-4.42,1.3a51.48,51.48,0,0,1,2,14.2c0,29-24.06,52.51-53.63,52.51S4.2,93.84,4.2,64.89a51.62,51.62,0,0,1,2-14.27l.22-.79L4.12,7.1,39.29,21.9,41,21.35a55.06,55.06,0,0,1,33.83.06l1.72.56L111.83,7.12,109.26,49.5l0,.39Z" fill="#010101"/>
    <path d="M97.28,83.36,94.69,79.3a13.43,13.43,0,0,0-1.56-2l-.06-.06a13,13,0,0,0-18.12,0,13.26,13.26,0,0,0-1.74,2.2h-28A12.79,12.79,0,0,0,25.1,77a13.06,13.06,0,0,0-1.55,2L21,83.05H33.2L34.87,86,33.2,88.87H21l2.58,4.06A13,13,0,0,0,25.15,95a12.81,12.81,0,0,0,20-2.31H64.76a2.08,2.08,0,0,0,.61,0H73a12.87,12.87,0,0,0,20.1,2.63l.06-.06a13.29,13.29,0,0,0,1.55-2l2.6-4.07H85l-1.67-2.91L85,83.36ZM82.81,93h7.13a9.11,9.11,0,0,1-12.26-.39A9.42,9.42,0,0,1,75.89,90l-.51-1.13H42.78l-.53,1.07a9,9,0,0,1-14,2.77h7.14L39.29,86l-3.87-6.74H28.29a9,9,0,0,1,12.27.39,8.88,8.88,0,0,1,1.76,2.54l.52,1.11H75.52l.53-1.06a8.91,8.91,0,0,1,13.89-2.68H82.81l-3.88,6.75Z" fill="#010101"/>
    <path d="M24.79,63.77l1.34-1.33.12.05v1.89a5,5,0,0,0,10,0V62.49l.13-.05,1.33,1.33a5,5,0,1,0,7.11-7.1l-1.34-1.34a.61.61,0,0,0,0-.12h1.89a5,5,0,0,0,0-10.05H43.58a1.12,1.12,0,0,0,0-.13l1.34-1.33a5,5,0,0,0,0-7.1,4.81,4.81,0,0,0-2.36-1.32,1.05,1.05,0,0,0-.24-.06,3.63,3.63,0,0,0-.46-.06h-.09a4.71,4.71,0,0,0-.92,0h-.06c-.09,0-.23,0-.38,0a3.46,3.46,0,0,0-.47.12l-.09,0a2.2,2.2,0,0,0-.37.12,4.19,4.19,0,0,0-.48.24l-.05,0a3.38,3.38,0,0,0-.35.19,5.46,5.46,0,0,0-.79.65l-1.33,1.33-.13,0V36a5,5,0,0,0-10,0v1.9l-.12,0L24.79,36.6A4.94,4.94,0,0,0,24,36a6,6,0,0,0-.59-.34l-.25-.11a4.19,4.19,0,0,0-1-.3,4.65,4.65,0,0,0-1-.1,4.94,4.94,0,0,0-3.54,1.47,4.16,4.16,0,0,0-.58.71,2.3,2.3,0,0,0-.15.23,6.28,6.28,0,0,0-.31.58c0,.08-.07.17-.1.26a3.42,3.42,0,0,0-.18.58l0,.17,0,.1a5.07,5.07,0,0,0-.07.8,2.56,2.56,0,0,0,0,.38,3.3,3.3,0,0,0,0,.47,3.53,3.53,0,0,0,.08.4,1,1,0,0,0,.06.23,2.19,2.19,0,0,0,.07.23,4.87,4.87,0,0,0,.57,1.19,5.28,5.28,0,0,0,.63.77L19,45l-.05.12H17.09a5,5,0,0,0-3,1,5.06,5.06,0,0,0-2,4,1.7,1.7,0,0,0,0,.21,5,5,0,0,0,5,4.82H19a.61.61,0,0,1,.05.12l-1.33,1.34a5,5,0,0,0,7.1,7.1Zm-4.35-4.35,3.35-3.36-.72-1.28a9.41,9.41,0,0,1-.84-2l-.4-1.42H17.09A1.14,1.14,0,0,1,16,50.18v-.11a1.14,1.14,0,0,1,1.14-1l4.75,0,.38-1.36.13-.37,0-.11c.09-.27.18-.51.28-.74a6.23,6.23,0,0,1,.41-.86l.72-1.29L20.44,41a1.15,1.15,0,0,1-.14-.17,1,1,0,0,1-.12-.27l-.05-.19a.49.49,0,0,1,0-.12l-.77,0h0l.76-.13s0-.09,0-.13a.29.29,0,0,0,0-.09,1,1,0,0,1,0-.13l0-.08a1.34,1.34,0,0,1,.1-.17l.13-.17a1.08,1.08,0,0,1,1-.3.9.9,0,0,1,.22.07l.1,0,.09.05.17.13L25.4,42.7,26.68,42a9,9,0,0,1,.88-.43c.23-.1.49-.19.79-.29l.14,0,.39-.13,1.25-.46V36a1.13,1.13,0,0,1,2.14-.53,1.09,1.09,0,0,1,.13.53v4.75l1.42.39a9.44,9.44,0,0,1,2,.85l1.29.72,3.35-3.36.13-.1.13-.08.31-.12h.48a1.14,1.14,0,0,1,.89,1.11,1.14,1.14,0,0,1-.33.8L38.76,44.3l.73,1.29a9.94,9.94,0,0,1,.84,2l.4,1.42h4.74a1.14,1.14,0,1,1,0,2.27H40.73l-.4,1.42a9.62,9.62,0,0,1-.84,2l-.73,1.28,3.36,3.36a1.13,1.13,0,0,1,0,1.6,1.17,1.17,0,0,1-1.61,0l-3.35-3.35-1.29.72a8.94,8.94,0,0,1-2,.84l-1.42.4v4.75a1.14,1.14,0,0,1-2.27,0V59.63l-1.41-.4a9,9,0,0,1-2.05-.84l-1.28-.72L22.05,61a1.17,1.17,0,0,1-1.61,0,1.11,1.11,0,0,1,0-1.6Zm-.76-20.35Z" fill="#010101"/>
    <path d="M59.48,65.71h.21l.21,0c3.34-.58,7.22-1.6,7.49-4.45.32-3.31-5.14-5.77-7.51-6.67l-.66-.25-.65.29c-5.81,2.55-8.12,4.66-7.7,7C51.41,64.71,56.5,65.5,59.48,65.71Z" fill="#010101"/>
    <path d="M31.28,55.1a4.92,4.92,0,1,0-4.91-4.92A4.91,4.91,0,0,0,31.28,55.1Z" fill="#010101"/>
    <path d="M82.14,55.43a4.91,4.91,0,1,0-4.91-4.91A4.91,4.91,0,0,0,82.14,55.43Z" fill="#010101"/>
  </g>
</svg>
