<svg id="Layer_1" data-name="Layer 1" xmlns="http://www.w3.org/2000/svg" width="99.28" height="100" viewBox="0 0 99.28 100">
  <title>ken icons</title>
  <path d="M79.8,61.05A19.79,19.79,0,0,0,74,62l-15-15L84.14,22.14l5.35-.76L98.72,6.86,92.17.31,77.64,9.55l-.51,5.35-25,25L38,25.66A19.42,19.42,0,0,0,19.48,0,20.13,20.13,0,0,0,15.6.52l-3.51.78L24.72,13.93,22.43,22.4,14,24.69,1.33,12.06l-.78,3.5A20.33,20.33,0,0,0,0,19.47,19.44,19.44,0,0,0,25.32,38.05l9.08,9.08a10,10,0,0,0-2,4.18A6.37,6.37,0,0,0,28.51,53L2.24,80A7.84,7.84,0,0,0,0,85.73,11.59,11.59,0,0,0,.3,88.66l.06.16A23.51,23.51,0,0,0,11,99.43a8.41,8.41,0,0,0,8.76-1.67L46,70.77a5.84,5.84,0,0,0,1.69-3.64A9,9,0,0,0,52,65l.14-.13,9.3,9.29a19.3,19.3,0,0,0-1.12,6.35A19.69,19.69,0,0,0,79.83,100a19.37,19.37,0,0,0,3.88-.52l3.51-.77L74.59,86.07l2.29-8.47,8.47-2.29L98,87.94l.77-3.5a19.57,19.57,0,0,0,.52-3.92A19.7,19.7,0,0,0,79.8,61.05ZM12.55,28.77l12.79-3.46,3.46-12.8L20.24,3.94A15.8,15.8,0,0,1,35.06,19.79a15.58,15.58,0,0,1-8.6,13.85l-.25-.15-.39.36a.75.75,0,0,0-.12.14,15.21,15.21,0,0,1-6.19,1.29l-.59,0A15.75,15.75,0,0,1,4,20.4ZM59,56.51v-.12a5.85,5.85,0,0,0-2.24-3.67L55,51l1.26-1.25,13.9,13.9a19.58,19.58,0,0,0-7,6.78l-8.3-8.3,2.85-2.85A3.81,3.81,0,0,0,59,56.51ZM53.42,44.1l.15-.12.09-.11L80.74,16.79l.49-4.91L91.47,5.36l2.2,2.2L87.15,17.81l-4.66.49-30.2,30-1.51-1.51ZM43.77,67.78l-26.23,27a5,5,0,0,1-4.53.87A19.66,19.66,0,0,1,4.15,87,4.79,4.79,0,0,1,5,82.5l26.26-27a2,2,0,0,1,2.26-.35l3.15,1.18-.46-2.72a3.93,3.93,0,0,1,1.06-3.39l5.42-5.67.07,0c.29.24.78.72,1,1L54.05,55.77c.23.24.72.73,1,1l-5.43,5.45a4.49,4.49,0,0,1-3.45,1.08l-3.23-.4,1.26,2.93A1.59,1.59,0,0,1,43.77,67.78ZM48,44l-1.47-1.47a5.75,5.75,0,0,0-3.67-2.23h-.12a3.79,3.79,0,0,0-2.69,1.14,3.66,3.66,0,0,0-.9.85,5.5,5.5,0,0,1-.41.47l-1.63,1.62-8-8a19.47,19.47,0,0,0,7.08-6.94L49.41,42.62ZM70.51,87.49l8.58,8.58A15.56,15.56,0,0,1,79.81,65h0A15.56,15.56,0,0,1,95.35,79.81l-8.58-8.58L74,74.7Z" fill="#010101"/>
</svg>
