<?xml version="1.0" encoding="UTF-8"?>
<svg width="112px" height="122px" viewBox="0 0 112 122" version="1.1" xmlns="http://www.w3.org/2000/svg" xmlns:xlink="http://www.w3.org/1999/xlink">
    <!-- Generator: Sketch 61.2 (89653) - https://sketch.com -->
    <title>icons_3rdBullet_Cattheme_Outline</title>
    <desc>Created with Sketch.</desc>
    <g id="Page-1" stroke="none" stroke-width="1" fill="none" fill-rule="evenodd">
        <g id="icons_3rdBullet_Cattheme_Outline" fill="#010101" fill-rule="nonzero">
            <g id="Group">
                <g transform="translate(0.000000, 15.000000)">
                    <path d="M102.37,63.82 L102.37,62.92 L86.17,62.92 C86.24,62.6 86.28,62.81 86.28,62.47 L86.28,4.52 C86.2853206,3.38141212 85.8367432,2.28763229 85.0335101,1.48064576 C84.230277,0.673659238 83.1386003,0.22 82,0.22 L41.73,0.22 L41.73,5.35 L81.15,5.35 L81.15,63 L41.73,63 L41.73,68 L81.58,68 C103.3,68 102.37,63.82 102.37,63.82 Z" id="Path"></path>
                    <path d="M31.18,0.18 L6.23,0.18 C4.58836173,0.19296124 3.02052258,0.863865483 1.87766732,2.04243497 C0.734812053,3.22100447 0.112455111,4.80873994 0.15,6.45 L0.15,62.08 C0.15,64.08 0.94,68.21 6.85,68.21 L31.85,68.21 C36.85,68.21 37.9001499,64.75 37.9001499,62.57 L37.9001499,7.17 C37.92,3.18 35.94,0.18 31.18,0.18 Z M18.85,68.18 C17.7318745,68.1840439 16.7217829,67.5130782 16.2920247,66.4808337 C15.8622664,65.4485891 16.0977641,64.2590426 16.8884033,63.4684033 C17.6790426,62.6777641 18.8685891,62.4422664 19.9008337,62.8720247 C20.9330782,63.3017829 21.6040439,64.3118745 21.6,65.43 C21.6080135,66.1645294 21.3218237,66.8717344 20.8052276,67.3939661 C20.2886314,67.9161979 19.5845731,68.21 18.85,68.21 L18.85,68.18 Z M32.45,62.67 L5.63,62.67 L5.63,5.39 L32.45,5.39 L32.45,62.67 Z" id="Shape"></path>
                </g>
                <g transform="translate(33.000000, 0.000000)" id="Path">
                    <path d="M0.73,121.87 L0.73,97.61 L73.89,97.61 L73.89,4.92 L0.73,4.92 L0.73,0.13 L71.73,0.13 C79,0.13 79,4.54 79,8.56 L79,95.27 C79,99.27 79,102.54 71.74,102.54 L5.19,102.54 L5.19,121.87 L0.73,121.87 Z"></path>
                    <path d="M2.19,121.76 L0.59,121.76 L0.59,116.76 L2.59,116.76 C24.32,116.76 23.39,120.96 23.39,120.96 L23.39,121.87 L7.21,121.87 L2.19,121.76 Z"></path>
                </g>
            </g>
            <g id="Group" transform="translate(7.000000, 32.000000)">
                <path d="M12.66,17.2 C12.6454543,21.9260787 14.3557255,26.4950983 17.47,30.05 C14.6344917,30.7882003 12.6566193,33.3499768 12.66,36.28 C12.66,37.3845695 11.7645695,38.28 10.66,38.28 L10,38.28 C8.8954305,38.28 8,37.3845695 8,36.28 L8,34.28 L8,33.48 C8.00003823,29.9128779 5.11708388,27.0165145 1.55,27 L0.39,27 L0.39,31.45 L1.55,31.45 C2.6545695,31.45 3.55,32.3454305 3.55,33.45 L3.55,36.29 C3.55548777,39.851583 6.43842975,42.7389947 10,42.75 L10.63,42.75 C14.1993765,42.7444832 17.0900043,39.8493807 17.09,36.28 C17.09,35.1754305 17.9854305,34.28 19.09,34.28 L23.54,34.28 L23.54,29.39 C16.21,27.22 17.07,17.31 17.07,17.2 C17.07,13.45 17.78,7.64 23.54,5.46 L23.54,0.79 C15.44,3 12.66,10.3 12.66,17.2 Z" id="Path"></path>
                <path d="M57.52,21.44 C57.52,20.1476537 56.4723463,19.1 55.18,19.1 C53.8876537,19.1 52.84,20.1476537 52.84,21.44 C52.84,22.7323463 53.8876537,23.78 55.18,23.78 C55.8006066,23.78 56.3957947,23.533465 56.8346299,23.0946299 C57.273465,22.6557947 57.52,22.0606066 57.52,21.44 Z" id="Path"></path>
                <path d="M72.24,27.8 L72.24,25.7 C72.2377291,23.6828355 71.2947798,21.7821455 69.69,20.56 C64.16,16.38 61.82,13.64 61.69,12.89 C61.54,7.74 58.27,4.48 53.15,4.37 L53,4.37 C51.423182,4.36932294 49.8754154,4.79426779 48.52,5.6 C45.33,3.21 41.01,0.78 33.14,0.25 L33.14,4.7 C37.5769258,4.84700456 41.8708855,6.30500222 45.48,8.89 C45.4455359,8.94622203 45.4186374,9.00674388 45.4,9.07 C43.7015336,12.3971174 44.5317296,16.4567756 47.4,18.85 C47.9912745,19.3858984 48.8235332,19.5656477 49.5832721,19.3215382 C50.343011,19.0774286 50.9148078,18.4465461 51.0832721,17.6665381 C51.2517364,16.8865301 50.9912746,16.0758984 50.4,15.54 C48.9720221,14.4516915 48.5814019,12.4685432 49.49,10.92 C50.1582075,9.59313415 51.535089,8.77402619 53.02,8.82 L53,8.82 C55.73,8.88 57.1,10.25 57.17,13.02 C57.17,14.02 57.28,16.77 66.99,24.11 C67.4832788,24.4897285 67.771616,25.0774929 67.77,25.7 L67.77,27.8 C67.77,28.9045695 66.8745695,29.8 65.77,29.8 L33.09,29.8 L33.09,34.25 L65.78,34.25 C69.341583,34.2445122 72.2289947,31.3615703 72.24,27.8 L72.24,27.8 Z" id="Path"></path>
            </g>
        </g>
    </g>
</svg>